<mxfile host="app.diagrams.net" modified="2023-09-05T11:42:26.643Z" agent="Mozilla/5.0 (Windows NT 10.0; Win64; x64) AppleWebKit/537.36 (KHTML, like Gecko) Chrome/116.0.0.0 Safari/537.36 Edg/116.0.1938.69" etag="Asrb4ilkTkGE4pFjtYcB" version="21.6.9" type="device">
  <diagram name="Página-1" id="FN45S5lizC2i-pkQZzEQ">
    <mxGraphModel dx="1195" dy="637" grid="0" gridSize="10" guides="1" tooltips="1" connect="1" arrows="1" fold="1" page="0" pageScale="1" pageWidth="827" pageHeight="1169" background="none" math="0" shadow="0">
      <root>
        <mxCell id="0" />
        <mxCell id="1" parent="0" />
        <mxCell id="_DXqD3SfeJfE9nlZQ6z2-1" value="Prestador" style="shape=umlActor;verticalLabelPosition=bottom;verticalAlign=top;html=1;" parent="1" vertex="1">
          <mxGeometry x="160" y="480" width="30" height="60" as="geometry" />
        </mxCell>
        <mxCell id="_DXqD3SfeJfE9nlZQ6z2-3" value="Cliente" style="shape=umlActor;verticalLabelPosition=bottom;verticalAlign=top;html=1;" parent="1" vertex="1">
          <mxGeometry x="720" y="480" width="30" height="60" as="geometry" />
        </mxCell>
        <mxCell id="_DXqD3SfeJfE9nlZQ6z2-7" value="Helps" style="shape=umlFrame;whiteSpace=wrap;html=1;pointerEvents=0;width=200;height=30;" parent="1" vertex="1">
          <mxGeometry x="280" y="150" width="360" height="702" as="geometry" />
        </mxCell>
        <mxCell id="_DXqD3SfeJfE9nlZQ6z2-9" value="UC01 - Solicitar serviço" style="ellipse;whiteSpace=wrap;html=1;" parent="1" vertex="1">
          <mxGeometry x="390" y="200" width="140" height="70" as="geometry" />
        </mxCell>
        <mxCell id="_DXqD3SfeJfE9nlZQ6z2-11" value="UC02 -&amp;nbsp; Detalhar o serviço" style="ellipse;whiteSpace=wrap;html=1;" parent="1" vertex="1">
          <mxGeometry x="390" y="280" width="140" height="70" as="geometry" />
        </mxCell>
        <mxCell id="_DXqD3SfeJfE9nlZQ6z2-12" value="UC03 - Marcar visita" style="ellipse;whiteSpace=wrap;html=1;" parent="1" vertex="1">
          <mxGeometry x="390" y="360" width="140" height="70" as="geometry" />
        </mxCell>
        <mxCell id="_DXqD3SfeJfE9nlZQ6z2-13" value="UC04 - Efetuar pagamento" style="ellipse;whiteSpace=wrap;html=1;" parent="1" vertex="1">
          <mxGeometry x="390" y="440" width="140" height="70" as="geometry" />
        </mxCell>
        <mxCell id="_DXqD3SfeJfE9nlZQ6z2-14" value="UC05 - Avaliar o &lt;br&gt;serviço" style="ellipse;whiteSpace=wrap;html=1;" parent="1" vertex="1">
          <mxGeometry x="390" y="520" width="140" height="70" as="geometry" />
        </mxCell>
        <mxCell id="_DXqD3SfeJfE9nlZQ6z2-15" value="UC06 - Gerenciar &lt;br&gt;conta cliente" style="ellipse;whiteSpace=wrap;html=1;" parent="1" vertex="1">
          <mxGeometry x="390" y="600" width="140" height="70" as="geometry" />
        </mxCell>
        <mxCell id="_DXqD3SfeJfE9nlZQ6z2-17" value="UC07 - Gerenciar &lt;br&gt;conta prestador" style="ellipse;whiteSpace=wrap;html=1;" parent="1" vertex="1">
          <mxGeometry x="390" y="680" width="140" height="70" as="geometry" />
        </mxCell>
        <mxCell id="_DXqD3SfeJfE9nlZQ6z2-19" value="UC08 - Aceitar &lt;br&gt;prestador" style="ellipse;whiteSpace=wrap;html=1;" parent="1" vertex="1">
          <mxGeometry x="390" y="760" width="140" height="70" as="geometry" />
        </mxCell>
        <mxCell id="_DXqD3SfeJfE9nlZQ6z2-21" value="" style="endArrow=none;html=1;rounded=0;exitX=1;exitY=0.5;exitDx=0;exitDy=0;" parent="1" source="_DXqD3SfeJfE9nlZQ6z2-9" edge="1">
          <mxGeometry relative="1" as="geometry">
            <mxPoint x="200" y="610" as="sourcePoint" />
            <mxPoint x="710" y="520" as="targetPoint" />
          </mxGeometry>
        </mxCell>
        <mxCell id="_DXqD3SfeJfE9nlZQ6z2-24" value="" style="endArrow=none;html=1;rounded=0;exitX=1;exitY=0.5;exitDx=0;exitDy=0;" parent="1" source="_DXqD3SfeJfE9nlZQ6z2-11" edge="1">
          <mxGeometry relative="1" as="geometry">
            <mxPoint x="540" y="245" as="sourcePoint" />
            <mxPoint x="710" y="520" as="targetPoint" />
          </mxGeometry>
        </mxCell>
        <mxCell id="_DXqD3SfeJfE9nlZQ6z2-25" value="" style="endArrow=none;html=1;rounded=0;exitX=1;exitY=0.5;exitDx=0;exitDy=0;" parent="1" source="_DXqD3SfeJfE9nlZQ6z2-12" edge="1">
          <mxGeometry relative="1" as="geometry">
            <mxPoint x="540" y="325" as="sourcePoint" />
            <mxPoint x="710" y="520" as="targetPoint" />
          </mxGeometry>
        </mxCell>
        <mxCell id="_DXqD3SfeJfE9nlZQ6z2-26" value="" style="endArrow=none;html=1;rounded=0;exitX=1;exitY=0.5;exitDx=0;exitDy=0;" parent="1" source="_DXqD3SfeJfE9nlZQ6z2-13" edge="1">
          <mxGeometry relative="1" as="geometry">
            <mxPoint x="550" y="335" as="sourcePoint" />
            <mxPoint x="710" y="520" as="targetPoint" />
          </mxGeometry>
        </mxCell>
        <mxCell id="_DXqD3SfeJfE9nlZQ6z2-27" value="" style="endArrow=none;html=1;rounded=0;exitX=1.014;exitY=0.386;exitDx=0;exitDy=0;exitPerimeter=0;" parent="1" source="_DXqD3SfeJfE9nlZQ6z2-14" edge="1">
          <mxGeometry relative="1" as="geometry">
            <mxPoint x="560" y="345" as="sourcePoint" />
            <mxPoint x="710" y="520" as="targetPoint" />
          </mxGeometry>
        </mxCell>
        <mxCell id="_DXqD3SfeJfE9nlZQ6z2-28" value="" style="endArrow=none;html=1;rounded=0;exitX=1;exitY=0.5;exitDx=0;exitDy=0;" parent="1" source="_DXqD3SfeJfE9nlZQ6z2-15" edge="1">
          <mxGeometry relative="1" as="geometry">
            <mxPoint x="570" y="355" as="sourcePoint" />
            <mxPoint x="710" y="520" as="targetPoint" />
          </mxGeometry>
        </mxCell>
        <mxCell id="_DXqD3SfeJfE9nlZQ6z2-29" value="" style="endArrow=none;html=1;rounded=0;exitX=1;exitY=0.5;exitDx=0;exitDy=0;" parent="1" source="_DXqD3SfeJfE9nlZQ6z2-19" edge="1">
          <mxGeometry relative="1" as="geometry">
            <mxPoint x="580" y="365" as="sourcePoint" />
            <mxPoint x="710" y="520" as="targetPoint" />
          </mxGeometry>
        </mxCell>
        <mxCell id="_DXqD3SfeJfE9nlZQ6z2-30" value="" style="endArrow=none;html=1;rounded=0;entryX=0;entryY=0.5;entryDx=0;entryDy=0;" parent="1" target="_DXqD3SfeJfE9nlZQ6z2-11" edge="1">
          <mxGeometry relative="1" as="geometry">
            <mxPoint x="200" y="520" as="sourcePoint" />
            <mxPoint x="730" y="330" as="targetPoint" />
          </mxGeometry>
        </mxCell>
        <mxCell id="_DXqD3SfeJfE9nlZQ6z2-31" value="" style="endArrow=none;html=1;rounded=0;entryX=0;entryY=0.5;entryDx=0;entryDy=0;" parent="1" target="_DXqD3SfeJfE9nlZQ6z2-9" edge="1">
          <mxGeometry relative="1" as="geometry">
            <mxPoint x="200" y="520" as="sourcePoint" />
            <mxPoint x="740" y="340" as="targetPoint" />
          </mxGeometry>
        </mxCell>
        <mxCell id="_DXqD3SfeJfE9nlZQ6z2-32" value="" style="endArrow=none;html=1;rounded=0;entryX=0;entryY=0.5;entryDx=0;entryDy=0;" parent="1" target="_DXqD3SfeJfE9nlZQ6z2-12" edge="1">
          <mxGeometry relative="1" as="geometry">
            <mxPoint x="200" y="520" as="sourcePoint" />
            <mxPoint x="750" y="350" as="targetPoint" />
          </mxGeometry>
        </mxCell>
        <mxCell id="_DXqD3SfeJfE9nlZQ6z2-33" value="" style="endArrow=none;html=1;rounded=0;exitX=0;exitY=0.5;exitDx=0;exitDy=0;" parent="1" source="_DXqD3SfeJfE9nlZQ6z2-17" edge="1">
          <mxGeometry relative="1" as="geometry">
            <mxPoint x="620" y="405" as="sourcePoint" />
            <mxPoint x="200" y="520" as="targetPoint" />
          </mxGeometry>
        </mxCell>
      </root>
    </mxGraphModel>
  </diagram>
</mxfile>
